<svg version="1.2" xmlns="http://www.w3.org/2000/svg" viewBox="0 0 306 212" width="306" height="212">
	<title>js-svg</title>
	<style>
		.s0 { fill: none;stroke: #ec7f00;stroke-width: 3 } 
		.s1 { fill: #ec7f00 } 
	</style>
	<path id="Layer" class="s0" d="m10 113.9c0-57.4 46.5-103.9 103.9-103.9h81.4c57.4 0 103.9 46.5 103.9 103.9-4.9 54.5-18.8 69.6-30.4 73.5-17.8 6.1-29.2-14.7-60.9-15.6-29.4-0.8-34.4 16.7-72.3 26.2-15 3.8-62.3 15.6-95.1-10.6-29.1-23.1-30.4-63.1-30.5-73.5z"/>
	<path id="PHP" class="s1" aria-label="PHP"  d="m123.4 105.8v-8.2h4.4c3.2 0 4.6 1.6 4.6 4.1 0 2.5-1.4 4.1-4.6 4.1zm14.8-4.1c0-4.8-3.4-8.6-10.1-8.6h-10.3v27.9h5.6v-10.7h4.7c7.2 0 10.1-4.3 10.1-8.6zm21.5 19.3h5.6v-27.9h-5.6v11.5h-12v-11.5h-5.6v27.9h5.6v-11.9h12zm16.7-15.2v-8.1h4.4c3.2 0 4.6 1.5 4.6 4 0 2.5-1.4 4.1-4.6 4.1zm14.8-4.1c0-4.8-3.4-8.6-10.1-8.6h-10.3v27.9h5.6v-10.7h4.7c7.2 0 10.1-4.3 10.1-8.6z"/>
</svg>