<svg version="1.2" xmlns="http://www.w3.org/2000/svg" viewBox="0 0 331 207" width="331" height="207">
	<title>docker-svg</title>
	<style>
		.s0 { fill: #000000 } 
		.s1 { fill: #ec7f00 } 
		.s2 { fill: #ffffff } 
	</style>
	<g id="Layer" style="opacity: .1">
		<path id="Layer" class="s0" d="m8.3 110.9c0-57.4 46.5-103.9 103.9-103.9h81.4c2.9 0 5.7 0.1 8.6 0.4h-66.5c-57.4 0-103.9 46.5-103.9 103.9 0.1 10.3 1.4 50.3 30.4 73.5 12.1 9.6 26.2 14.1 39.8 15.7-19.8 1.5-44-0.7-63.3-16.1-29-23.1-30.3-63.1-30.4-73.5z"/>
		<path id="Layer" class="s0" d="m217.4 170c3.6-0.7 7.7-0.9 12.3-0.9 16 0.5 26.8 6 35.9 10.6 2 1 3.8 2 5.7 2.8-1.5 0.9-2.8 1.6-4.3 2-8.8 3-16-0.7-25-5.2-6.8-3.4-14.5-7.3-24.6-9.3z"/>
	</g>
	<path id="Layer" class="s1" d="m321 111.3c-2.4 27.2-7.1 44.6-12.7 55.7-5.6 11.1-12 15.9-17.8 17.8-6.8 2.3-12.7 0.6-19.2-2.4-10.3-4.7-22.2-12.7-41.6-13.3-4.6-0.1-8.7 0.1-12.3 0.9-19.5 3.6-28 17.3-60 25.3-9.5 2.3-31.9 8-55.4 5.2-13.6-1.6-27.7-6.1-39.8-15.7-29-23.2-30.3-63.2-30.4-73.5 0-57.4 46.5-103.9 103.9-103.9h81.4c57.4 0 103.9 46.5 103.9 103.9z"/>
	<path id="Symfony" class="s2" aria-label="Symfony"  d="m107.3 106.9c0-9.8-14.3-6.7-14.3-12.3 0-2.3 1.6-3.4 3.8-3.3 2.4 0.1 3.9 1.5 4 3.3h6.2c-0.4-5-4.3-7.9-10-7.9-5.8 0-9.9 3-9.9 8.1 0 10.1 14.4 6.4 14.4 12.5 0 2-1.6 3.4-4.2 3.4-2.6 0-4.1-1.5-4.3-3.7h-6c0.1 5.2 4.6 8.3 10.4 8.3 6.4 0 9.9-4 9.9-8.4zm14.3 1.4l-5.8-15.5h-6.2l8.8 21.6-4.8 11.1h6l13.7-32.7h-5.9zm45.7 6.7h5.6v-13c0-6.1-3.7-9.5-9.1-9.5-3.2 0-6.1 1.8-7.6 4.3-1.5-2.8-4.3-4.3-7.8-4.3-2.7 0-5.1 1.2-6.5 3v-2.6h-5.6v22.1h5.6v-12.2c0-3.5 2-5.4 5-5.4 3 0 4.9 1.9 4.9 5.4v12.2h5.6v-12.2c0-3.5 2-5.4 5-5.4 3 0 4.9 1.9 4.9 5.4zm11.5 0h5.7v-17.6h3.9v-4.6h-3.9v-0.9c0-2.5 0.9-3.4 3.7-3.3v-4.7c-6.3-0.2-9.4 2.4-9.4 7.8v1.1h-2.5v4.6h2.5zm34.6-11.1c0-7-5-11.4-11.4-11.4-6.4 0-11.4 4.4-11.4 11.4 0 7 4.9 11.5 11.3 11.5 6.4 0 11.5-4.5 11.5-11.5zm-17.1 0c0-4.4 2.7-6.5 5.7-6.5 2.9 0 5.7 2.1 5.7 6.5 0 4.4-2.9 6.6-5.8 6.6-3 0-5.6-2.2-5.6-6.6zm36.8 11.1h5.6v-13c0-6.1-3.7-9.5-8.9-9.5-2.8 0-5.2 1.2-6.6 3.1v-2.7h-5.6v22.1h5.6v-12.2c0-3.6 1.9-5.5 5-5.5 2.9 0 4.9 1.9 4.9 5.5zm20.3-6.7l-5.7-15.5h-6.3l8.9 21.6-4.8 11.1h6l13.7-32.7h-6z"/>
</svg>